<?xml version="1.0" encoding="utf-8"?>
<!-- Generator: Adobe Illustrator 22.1.0, SVG Export Plug-In . SVG Version: 6.00 Build 0)  -->
<svg version="1.1" id="Layer_1" xmlns="http://www.w3.org/2000/svg" xmlns:xlink="http://www.w3.org/1999/xlink" x="0px" y="0px"
	 viewBox="0 0 493.7 267.4" style="enable-background:new 0 0 493.7 267.4;" xml:space="preserve">
<style type="text/css">
	.st0{fill-rule:evenodd;clip-rule:evenodd;fill:#034EA2;}
	.st1{fill:#034EA2;}
</style>
<path class="st0" d="M86.2,115.1H94c10.6,0,11.8,9.9,11.8,20.3c0,14.7-1.2,20.3-12.4,20.3h-7.1V115.1L86.2,115.1z M52.6,180.9h47.9
	c30,0,38.9-19.3,38.9-44.1c0-18.8-5.5-31.3-22-34.4V102c16.3-5.6,18.3-19.3,18.3-35c0-25.5-11.8-35-36.5-35H52.6V180.9L52.6,180.9z
	 M86.2,57.3h7.5c8.4,0,10.6,5.8,10.6,16.4c0,9.3-1.2,17.2-11.8,17.2h-6.3V57.3L86.2,57.3z"/>
<polygon class="st0" points="154.5,32.1 229.6,32.1 229.6,60.8 188.2,60.8 188.2,90.4 224.5,90.4 224.5,119 188.2,119 188.2,152.1 
	231.2,152.1 231.2,180.9 154.5,180.9 154.5,32.1 "/>
<polygon class="st0" points="246.3,32.1 279.9,32.1 279.9,87.8 299.5,87.8 299.5,32.1 333.1,32.1 333.1,180.9 299.5,180.9 
	299.5,117.6 279.9,117.6 279.9,180.9 246.3,180.9 246.3,32.1 "/>
<path class="st0" d="M391.3,55.3h0.4l7.9,72.7h-16.9L391.3,55.3L391.3,55.3z M341.9,180.9h33.9l3.5-26.5h23.7l3.1,26.5h35.5
	L413.9,32.1H369L341.9,180.9L341.9,180.9z"/>
<path class="st0" d="M433,33.6c0-4.8,3.8-8.6,8.4-8.6c4.7,0,8.4,3.8,8.4,8.6c0,4.7-3.7,8.5-8.4,8.5C436.8,42.2,433,38.3,433,33.6
	L433,33.6z M430.4,33.6c0,6.1,5,11.1,11,11.1c6,0,11-5,11-11.1c0-6.1-5-11.2-11-11.2C435.5,22.4,430.4,27.5,430.4,33.6L430.4,33.6z
	 M436.6,27.9v2h0.4c0.2,0,0.6-0.1,0.6,0.3v5.9c0,0.3,0,0.7-0.6,0.7h-0.4v2h4.7v-2h-0.2c-0.3,0-0.3-0.3-0.3-0.6v-1.7h0.9l0.6,1.2
	c0.2,0.4,0.3,0.5,0.3,0.7c0,0.2-0.2,0.4-0.4,0.4h-0.2v2h5.2v-2h-0.3c-0.7,0-1.4-1.2-1.6-1.6l-0.8-1.7c1.3-0.7,1.4-2,1.4-2.4
	c0-2.3-1.7-3.2-3.9-3.2H436.6L436.6,27.9z M440.8,30.2h0.3c1.2,0,1.3,0.5,1.3,1c0,0.3,0,1.2-1.2,1.2h-0.3V30.2L440.8,30.2z"/>
<path class="st1" d="M52.6,202.5v24.4h4.8v-20.3h6.5v-4.1H52.6L52.6,202.5z M88.2,202.5v24.4H93v-24.4H88.2L88.2,202.5z
	 M119.3,202.5v24.4h4.8v-20.3h4.9v20.3h4.8v-24.4H119.3L119.3,202.5z M170,212.2h-5.6v-5.6h5.9v-4.1h-10.6v24.4h11.1v-4.1h-6.3v-6.6
	h5.6V212.2L170,212.2z M197.5,226.9h4.8v-9.1c0.1,0,0.3,0,0.5,0c0.2,0,0.3,0,0.5,0c0.7,0,1.4-0.1,2.1-0.2c0.7-0.2,1.4-0.4,2.1-0.8
	c0.7-0.3,1.3-0.8,1.8-1.3c0.6-0.7,1.1-1.5,1.5-2.5c0.4-1,0.5-2.1,0.6-3.4c0-0.7-0.1-1.4-0.2-2c-0.2-0.7-0.4-1.3-0.7-1.8
	c-0.3-0.6-0.7-1.1-1.2-1.5c-0.5-0.5-1.1-0.9-1.8-1.1c-0.7-0.3-1.4-0.5-2.2-0.6c-0.8-0.1-1.7-0.2-2.6-0.2c-0.9,0-1.8,0-2.7,0.1
	c-0.9,0.1-1.6,0.2-2.3,0.3V226.9L197.5,226.9z M202.2,206.4c0.1-0.1,0.3-0.1,0.5-0.1c0.2,0,0.4,0,0.6,0c0.7,0,1.3,0.2,1.8,0.5
	c0.5,0.3,0.8,0.8,1,1.4c0.2,0.6,0.3,1.2,0.3,1.9c0,0.8-0.1,1.5-0.4,2c-0.2,0.6-0.6,1.1-1.1,1.4c-0.5,0.3-1.2,0.5-2,0.5
	c-0.1,0-0.3,0-0.4,0c-0.1,0-0.2,0-0.4-0.1V206.4L202.2,206.4z M249.8,226.9h4.2l-1.5-24.4h-5l-1.9,8.8c-0.3,1.5-0.6,3-0.9,4.4
	c-0.3,1.4-0.5,2.8-0.7,4.1H244c-0.2-1.4-0.5-2.8-0.8-4.2c-0.3-1.4-0.6-2.9-1-4.4l-2-8.8h-5l-1.8,24.4h4.1l0.4-8.5
	c0-0.8,0.1-1.7,0.1-2.6c0-0.9,0.1-1.9,0.1-2.8c0-0.9,0.1-1.9,0.1-2.7h0.1c0.1,0.9,0.3,1.8,0.4,2.7c0.2,0.9,0.4,1.8,0.5,2.7
	c0.2,0.8,0.4,1.6,0.5,2.3l2,8.6h3.4l2.1-8.7c0.2-0.6,0.3-1.4,0.5-2.2c0.2-0.8,0.4-1.7,0.5-2.6c0.2-0.9,0.3-1.8,0.5-2.7h0.1
	c0,0.9,0,1.8,0,2.8c0,0.9,0.1,1.9,0.1,2.8c0,0.9,0.1,1.8,0.1,2.5L249.8,226.9L249.8,226.9z M287,221.3l1.1,5.6h4.6l-4.8-24.4h-5.7
	l-5.3,24.4h4.6l1.1-5.6H287L287,221.3z M283.1,217.6l0.9-5.1c0.1-0.4,0.1-0.8,0.2-1.2c0.1-0.5,0.2-1,0.2-1.5c0.1-0.5,0.2-1,0.2-1.5
	c0.1-0.5,0.1-0.9,0.2-1.4h0.1c0.1,0.4,0.1,0.9,0.2,1.3c0.1,0.5,0.1,1,0.2,1.5c0.1,0.5,0.1,1,0.2,1.5c0.1,0.5,0.1,0.9,0.2,1.3
	l0.8,5.1H283.1L283.1,217.6z M317.2,226.9h4.8v-9.1c0.1,0,0.3,0,0.5,0c0.2,0,0.3,0,0.5,0c0.7,0,1.4-0.1,2.1-0.2
	c0.7-0.2,1.4-0.4,2.1-0.8c0.7-0.3,1.3-0.8,1.8-1.3c0.6-0.7,1.1-1.5,1.5-2.5c0.4-1,0.6-2.1,0.6-3.4c0-0.7-0.1-1.4-0.2-2
	c-0.2-0.7-0.4-1.3-0.7-1.8c-0.3-0.6-0.7-1.1-1.2-1.5c-0.5-0.5-1.1-0.9-1.8-1.1c-0.7-0.3-1.4-0.5-2.2-0.6c-0.8-0.1-1.7-0.2-2.6-0.2
	c-0.9,0-1.8,0-2.7,0.1c-0.9,0.1-1.6,0.2-2.3,0.3V226.9L317.2,226.9z M321.9,206.4c0.1-0.1,0.3-0.1,0.5-0.1c0.2,0,0.4,0,0.6,0
	c0.7,0,1.3,0.2,1.8,0.5c0.5,0.3,0.8,0.8,1,1.4c0.2,0.6,0.3,1.2,0.3,1.9c0,0.8-0.1,1.5-0.4,2c-0.2,0.6-0.6,1.1-1.1,1.4
	c-0.5,0.3-1.2,0.5-2,0.5c-0.1,0-0.3,0-0.4,0c-0.1,0-0.2,0-0.4-0.1V206.4L321.9,206.4z M355.6,202.5v24.4h4.6v-10.4h0.4
	c0.6,0,1.2,0.2,1.6,0.6c0.4,0.4,0.7,0.9,1,1.6c0.2,0.7,0.5,1.5,0.7,2.5c0.2,1,0.4,1.9,0.6,2.9c0.2,1,0.5,1.9,0.7,2.8h4.8
	c-0.4-1.1-0.7-2.3-0.9-3.4c-0.2-1.2-0.5-2.3-0.8-3.5c-0.2-1-0.5-1.9-0.8-2.7c-0.3-0.8-0.7-1.5-1.2-2.1c-0.5-0.6-1.2-1-2-1.4
	l5.6-11.3h-5.2l-4,10.6h-0.4v-10.6H355.6L355.6,202.5z M404.2,212.2h-5.6v-5.6h5.9v-4.1h-10.6v24.4h11.1v-4.1h-6.3v-6.6h5.6V212.2
	L404.2,212.2z M432.6,226.9h4.8v-20.1h4.4v-4.4h-13.4v4.4h4.3V226.9L432.6,226.9z"/>
</svg>
